<?xml version="1.0" encoding="UTF-8" standalone="no"?>
<svg
   xmlns:dc="http://purl.org/dc/elements/1.1/"
   xmlns:cc="http://creativecommons.org/ns#"
   xmlns:rdf="http://www.w3.org/1999/02/22-rdf-syntax-ns#"
   xmlns:svg="http://www.w3.org/2000/svg"
   xmlns="http://www.w3.org/2000/svg"
   xmlns:sodipodi="http://sodipodi.sourceforge.net/DTD/sodipodi-0.dtd"
   xmlns:inkscape="http://www.inkscape.org/namespaces/inkscape"
   viewBox="0 0 600 600"
   id="svg2"
   version="1.1"
   inkscape:version="0.48.4 r9939"
   width="100%"
   height="100%"
   sodipodi:docname="gray.svg">
  <metadata
     id="metadata50">
    <rdf:RDF>
      <cc:Work
         rdf:about="">
        <dc:format>image/svg+xml</dc:format>
        <dc:type
           rdf:resource="http://purl.org/dc/dcmitype/StillImage" />
        <dc:title>customize me icon bg</dc:title>
      </cc:Work>
    </rdf:RDF>
  </metadata>
  <sodipodi:namedview
     pagecolor="#ffffff"
     bordercolor="#666666"
     borderopacity="1"
     objecttolerance="10"
     gridtolerance="10"
     guidetolerance="10"
     inkscape:pageopacity="0"
     inkscape:pageshadow="2"
     inkscape:window-width="962"
     inkscape:window-height="639"
     id="namedview48"
     showgrid="false"
     inkscape:zoom="0.55625733"
     inkscape:cx="273.08244"
     inkscape:cy="327.1103"
     inkscape:window-x="0"
     inkscape:window-y="25"
     inkscape:window-maximized="0"
     inkscape:current-layer="svg2" />
  <defs
     id="defs4">
    <clipPath
       id="clipPath3918">
      <path
         d="m6,1h43a5,5 0 0,1 5,5v35a5,5 0 0,1 -5,5h-43a5,5 0 0,1 -5-5v-35a5,5 0 0,1 5-5"
         id="path7" />
    </clipPath>
    <clipPath
       id="clipPath3960">
      <path
         d="m8.15,3.25h38.7a4.5,4.5 0 0,1 4.5,4.5v31.5a4.5,4.5 0 0,1 -4.5,4.5h-38.7a4.5,4.5 0 0,1 -4.5-4.5v-31.5a4.5,4.5 0 0,1 4.5-4.5"
         id="path10" />
    </clipPath>
    <filter
       id="filter3914">
      <feGaussianBlur
         stdDeviation=".735"
         id="feGaussianBlur13" />
    </filter>
    <filter
       id="filter3956">
      <feGaussianBlur
         stdDeviation=".6615"
         id="feGaussianBlur16" />
    </filter>
    <linearGradient
       gradientUnits="userSpaceOnUse"
       id="linearGradient6320"
       x2="0"
       y1="46"
       y2="1">
      <stop
         offset="0"
         stop-opacity=".7843"
         id="stop19" />
      <stop
         offset=".307"
         stop-color="#fff"
         stop-opacity=".7843"
         id="stop21" />
      <stop
         offset=".531"
         stop-color="#fff"
         stop-opacity=".2157"
         id="stop23" />
      <stop
         offset=".6417"
         stop-opacity=".7843"
         id="stop25" />
      <stop
         offset=".7604"
         stop-color="#fff"
         stop-opacity=".2157"
         id="stop27" />
      <stop
         offset="1"
         stop-color="#fff"
         stop-opacity=".7843"
         id="stop29" />
    </linearGradient>
    <linearGradient
       gradientUnits="userSpaceOnUse"
       id="linearGradient6322"
       x2="0"
       y1="44"
       y2="3">
      <stop
         offset="0"
         stop-color="#fff"
         stop-opacity=".3922"
         id="stop32" />
      <stop
         offset="1"
         stop-opacity=".3922"
         id="stop34" />
    </linearGradient>
  </defs>
  <title
     id="title36">customize me icon bg</title>
  <g
     transform="matrix(11.999952,0,0,12.765899,9.6367415e-4,2.0014841)"
     id="g38">
    <path
       d="M 4.71698,-2e-5 H 45.28302 A 4.71698,5.22222 0 0 1 50,5.2222 v 36.55554 a 4.71698,5.22222 0 0 1 -4.71698,5.22222 H 4.71698 A 4.71698,5.22222 0 0 1 0,41.77774 V 5.2222 A 4.71698,5.22222 0 0 1 4.71698,-2e-5"
       id="path40"
       inkscape:connector-curvature="0"
       style="fill-rule:evenodd" />
    <path
       clip-path="url(#clipPath3918)"
       d="m 6,1 h 43 a 5,5 0 0 1 5,5 v 35 a 5,5 0 0 1 -5,5 H 6 A 5,5 0 0 1 1,41 V 6 A 5,5 0 0 1 6,1"
       transform="matrix(0.9434,0,0,1.04444,-0.9434,-1.04443)"
       id="path42"
       style="fill:url(#linearGradient6320);fill-rule:evenodd;filter:url(#filter3914)"
       inkscape:connector-curvature="0" />
    <path
       d="m 6.74528,2.35002 h 36.50943 a 4.24528,4.7 0 0 1 4.24528,4.7 v 32.89999 a 4.24528,4.7 0 0 1 -4.24528,4.7 H 6.74528 A 4.24528,4.7 0 0 1 2.5,39.95001 V 7.05002 a 4.24528,4.7 0 0 1 4.24528,-4.7"
       id="path44"
       inkscape:connector-curvature="0"
       style="fill-rule:evenodd" />
    <path
       clip-path="url(#clipPath3960)"
       d="m 8.15,3.25 h 38.7 a 4.5,4.5 0 0 1 4.5,4.5 v 31.5 a 4.5,4.5 0 0 1 -4.5,4.5 H 8.15 a 4.5,4.5 0 0 1 -4.5,-4.5 V 7.75 a 4.5,4.5 0 0 1 4.5,-4.5"
       transform="matrix(0.9434,0,0,1.04444,-0.9434,-1.04443)"
       id="path46"
       style="fill:url(#linearGradient6322);fill-rule:evenodd;filter:url(#filter3956)"
       inkscape:connector-curvature="0" />
  </g>
</svg>
